<?xml version="1.0" encoding="UTF-8" standalone="no"?>
<svg
   xmlns:dc="http://purl.org/dc/elements/1.1/"
   xmlns:cc="http://creativecommons.org/ns#"
   xmlns:rdf="http://www.w3.org/1999/02/22-rdf-syntax-ns#"
   xmlns:svg="http://www.w3.org/2000/svg"
   xmlns="http://www.w3.org/2000/svg"
   width="25"
   height="25"
   viewBox="0 0 508.10186 510.50331"
   id="svg4185"
   version="1.1">
  <defs
     id="defs4187" />
  <metadata
     id="metadata4190">
    <rdf:RDF>
      <cc:Work
         rdf:about="">
        <dc:format>image/svg+xml</dc:format>
        <dc:type
           rdf:resource="http://purl.org/dc/dcmitype/StillImage" />
        <dc:title></dc:title>
      </cc:Work>
    </rdf:RDF>
  </metadata>
  <g
     style="fill:#ffffff"
     id="layer1"
     transform="translate(-46.777852,-288.4997)">
    <path
       style="fill:#ffffff"
       d="m 278.125,798.40643 c -51.84067,-4.86516 -100.85267,-25.41155 -141.25,-59.21359 -7.24254,-6.06011 -24.34475,-23.16265 -30.40149,-30.40208 -32.498186,-38.84399 -51.469146,-82.35022 -58.458166,-134.0625 -1.64999,-12.20837 -1.64999,-49.66663 0,-61.875 5.40432,-39.987 17.4235,-73.63539 37.83736,-105.92789 10.11659,-16.00336 20.792956,-29.2257 35.362076,-43.79482 20.68993,-20.68993 40.44831,-35.01188 65.97272,-47.82065 28.99671,-14.55125 59.53413,-23.23162 92.1875,-26.20464 8.86429,-0.80708 36.12885,-0.8075 45,-7e-4 51.63149,4.69572 97.46124,23.22347 138.93184,56.16649 8.84706,7.02783 30.2223,28.48074 37.75753,37.89471 47.49079,59.33161 66.25749,134.90525 51.9927,209.375 -7.79282,40.68265 -25.49217,78.76713 -51.9927,111.875 -7.53523,9.41397 -28.91047,30.86688 -37.75753,37.89472 -41.4706,32.94301 -87.30035,51.47077 -138.93184,56.16648 -8.0812,0.73496 -38.15584,0.68909 -46.25,-0.0705 z m 35.625,-39.30644 c 62.69347,-3.91108 118.25949,-32.66232 157.02134,-81.24673 25.57584,-32.05697 40.41109,-68.13029 45.88037,-111.5625 1.02902,-8.17158 1.02902,-36.82842 0,-45 -4.17339,-33.1414 -13.34166,-60.77296 -28.77966,-86.73681 -49.08306,-82.5486 -144.84545,-122.91884 -237.50804,-100.1255 -30.39664,7.47704 -58.43095,21.35085 -83.48901,41.31765 -8.83159,7.03719 -26.00747,24.21307 -33.04468,33.04466 -26.65842,33.45598 -42.127646,71.44747 -46.697986,114.6875 -0.97712,9.24452 -0.97712,31.38048 0,40.625 4.57034,43.24002 20.039566,81.23152 46.697986,114.6875 7.03721,8.83159 24.21309,26.00747 33.04468,33.04466 36.35656,28.96967 79.98744,45.41571 125.9375,47.47034 9.21603,0.41209 11.37322,0.39089 20.9375,-0.20577 z m 65.7271,-37.68441 c -10.86864,-11.15679 -32.33536,-49.08423 -36.95288,-65.2884 -4.2034,-14.75093 -7.04094,-34.94966 -6.28521,-44.74066 0.57505,-7.45021 1.55719,-10.41409 5.63407,-17.00244 7.69372,-12.43327 9.21042,-16.6603 9.96799,-27.78082 0.22247,-3.26562 1.3758,-15.58619 2.56295,-27.37902 1.18716,-11.79285 2.15847,-21.69607 2.15847,-22.00717 0,-0.3111 -1.19532,-0.88237 -2.65625,-1.2695 -1.46094,-0.38712 -4.36477,-1.60496 -6.45295,-2.70631 l -3.79671,-2.00244 1.10875,2.91798 c 4.34016,11.42237 -0.13105,23.45686 -15.561,41.88327 -7.72808,9.22885 -27.44935,29.17803 -34.82933,35.23184 -17.02055,13.96198 -41.55268,28.81836 -71.25,43.1482 -16.315,7.87247 -23.96167,11.24232 -24.43541,10.76858 -0.96068,-0.96068 18.23103,-40.21925 27.79634,-56.86021 13.62258,-23.69949 23.75388,-37.35116 39.10354,-52.69108 22.95078,-22.93622 36.71304,-33.52637 47.80521,-36.78642 4.85579,-1.42715 12.75937,-1.29741 16.20482,0.26601 1.49848,0.67994 2.81811,1.23627 2.93251,1.23627 0.1144,0 -0.47547,-1.19531 -1.31083,-2.65625 -0.83537,-1.46094 -2.11199,-4.4272 -2.83694,-6.5917 l -1.31809,-3.93544 -2.59558,0.35173 c -4.1145,0.55758 -39.27721,3.98235 -48.11772,4.68657 -10.18822,0.81156 -14.25664,2.20583 -24.26127,8.31444 -11.12615,6.79337 -11.79806,6.98024 -24.90408,6.92625 -11.87819,-0.0489 -18.64222,-0.98228 -34.05848,-4.69959 -11.61779,-2.80139 -20.66238,-6.71423 -38.2963,-16.56759 -11.02521,-6.16058 -19.23197,-11.34653 -26.16184,-16.53196 -7.02657,-5.25778 -9.60839,-8.09104 -9.60839,-10.54412 0,-2.05597 1.07582,-2.51123 8.75,-3.70272 14.41511,-2.23808 57.71548,-2.44491 83.75001,-0.40004 28.11934,2.20863 66.23462,7.62711 105.20836,14.95646 11.11354,2.09 11.14725,2.09234 11.62377,0.80419 0.42905,-1.15983 -0.29501,-1.66687 -7.08337,-4.96035 -4.1587,-2.01766 -8.8724,-4.23387 -10.47489,-4.92492 -2.12914,-0.91817 -3.98647,-2.54629 -6.89824,-6.04696 -7.30967,-8.78804 -11.75063,-15.07477 -11.75063,-16.63446 0,-0.18895 0.49218,-0.34172 1.09375,-0.3395 1.57105,0.006 6.35791,4.29805 12.48746,11.1972 5.19166,5.8435 5.43882,6.02719 10.36365,7.70233 l 5.04515,1.71607 -2.02688,-2.09122 c -2.237,-2.30799 -2.66062,-3.61468 -6.02409,-18.5822 -2.87098,-12.77589 -2.88098,-17.61753 -0.028,-13.5443 0.54007,0.77106 2.87633,7.24419 5.19169,14.38474 l 4.20975,12.98282 5.46875,2.83218 c 3.00781,1.5577 5.46875,2.62365 5.46875,2.36876 0,-0.25488 -1.29499,-3.77473 -2.87776,-7.82189 l -2.87776,-7.35849 1.01336,-7.98876 c 1.85268,-14.60547 3.63549,-21.50247 5.15981,-19.96117 0.73472,0.74292 0.52884,12.03937 -0.35694,19.5854 l -0.74693,6.363 5.34524,8.20381 c 2.93989,4.51209 5.60749,8.04173 5.92801,7.84364 2.22647,-1.37604 13.07324,-1.39803 18.27099,-0.0371 l 1.67054,0.43741 -1.27042,-3.9619 c -0.83234,-2.59573 -1.2935,-5.81281 -1.33737,-9.32952 -0.0607,-4.86848 0.12263,-5.75272 1.97184,-9.509 2.1427,-4.35245 5.23138,-7.44275 8.69314,-8.69773 1.42997,-0.5184 2.22111,-1.33297 2.69797,-2.77787 1.31249,-3.97688 6.77272,-6.91169 11.28789,-6.0671 4.2745,0.79957 8.58063,4.8029 8.73213,8.11809 0.13673,2.99223 6.19625,-12.43286 6.19625,-15.77317 0,-2.79128 -1.8942,-7.65308 -5.3252,-13.66811 -3.03882,-5.32746 -3.34093,-7.38592 -1.13025,-7.70077 1.10183,-0.15692 1.8596,0.66591 4.02908,4.375 7.8937,13.49569 8.14164,17.35626 2.01644,31.39846 -1.7814,4.08392 -2.00451,5.04301 -1.26893,5.45466 5.09549,2.85158 12.8328,10.43556 15.83966,15.52577 1.31173,2.22059 0.83541,2.28507 9.2767,-1.25601 10.87898,-4.5637 15.45295,-4.12489 27.34375,2.62326 4.5182,2.56413 5.46875,3.367 5.46875,4.61911 0,2.1642 -2.32286,1.99753 -6.30443,-0.45235 -4.68602,-2.88334 -12.46809,-6.14072 -14.69148,-6.14949 -2.1344,-0.008 -6.5942,1.4341 -12.66535,4.09661 l -3.97376,1.7427 2.6213,1.23371 c 8.14378,3.83287 8.03771,16.43305 -0.16261,19.31873 -1.07422,0.37802 -2.07129,1.40755 -2.6086,2.69352 -1.36198,3.25968 -5.67982,7.50066 -9.26067,9.09581 -4.43586,1.97604 -13.40674,2.04455 -18.76971,0.14337 -2.74333,-0.97252 -3.54751,-1.07682 -3.29844,-0.42778 0.18114,0.47207 0.6531,2.71736 1.04878,4.98955 0.66182,3.80046 0.55655,6.87513 -0.43765,12.78204 l -0.37675,2.2384 7.965,5.17663 7.96499,5.17664 6.63094,-0.68155 c 6.44032,-0.66196 12.29846,-0.93017 17.09969,-0.7829 3.25055,0.0997 3.12087,1.68945 -0.211,2.58663 -3.61305,0.97289 -11.02187,2.21604 -18.79063,3.15294 l -6.65788,0.80294 -6.77962,-2.58955 c -3.72879,-1.42425 -7.26246,-2.76602 -7.8526,-2.9817 -0.78257,-0.28602 -0.27509,1.14723 1.875,5.29551 2.72674,5.26084 3.13288,5.73854 5.4119,6.36534 6.22488,1.71208 23.16582,7.50388 24.49377,8.37399 5.63771,3.69396 -4.48921,2.657 -24.19903,-2.47791 -4.06512,-1.05907 -6.24121,-1.98938 -7.52071,-3.21522 -0.99023,-0.94873 -1.80043,-1.58097 -1.80043,-1.40499 0,0.17597 0.67585,2.30704 1.50188,4.73569 1.22192,3.59257 2.0666,4.9178 4.53125,7.10907 7.13942,6.34752 13.96687,13.62256 13.96687,14.88249 0,0.72141 -0.29115,1.31165 -0.64699,1.31165 -1.2732,0 -7.90113,-4.75121 -16.02161,-11.48504 -4.40469,-3.65253 -4.56768,-3.8954 -9.5572,-14.24043 -4.83882,-10.03257 -6.35535,-12.04401 -7.27459,-9.64854 -0.18488,0.48179 0.79793,7.02085 2.18402,14.53125 8.81665,47.77224 13.25856,81.44557 15.11614,114.59276 0.97442,17.38777 0.4285,59.82632 -0.88439,68.75 -1.34592,9.14823 -1.94089,10.625 -4.28067,10.625 -1.43313,0 -2.61925,-0.77117 -5.0951,-3.31264 z"
       id="path4215" />
  </g>
</svg>
