<svg xmlns:dc="http://purl.org/dc/elements/1.1/"
		xmlns:cc="http://creativecommons.org/ns#"
		xmlns:rdf="http://www.w3.org/1999/02/22-rdf-syntax-ns#"
		xmlns:svg="http://www.w3.org/2000/svg"
		xmlns="http://www.w3.org/2000/svg"
		version="1.1"
		id="svg4185"
		viewBox="0 0 1666.5741 510.50331"
		height="25px"
		width="82px">
	<defs id="defs4187" />
	<metadata id="metadata4190">
		<rdf:RDF>
			<cc:Work rdf:about="">
				<dc:format>image/svg+xml</dc:format>
				<dc:type rdf:resource="http://purl.org/dc/dcmitype/StillImage" />
				<dc:title></dc:title>
			</cc:Work>
		</rdf:RDF>
	</metadata>
	<g transform="translate(-46.777852,-288.4997)"
		id="layer1">
		<path id="path4215"
				d="m 278.125,798.40643 c -51.84067,-4.86516 -100.85267,-25.41155 -141.25,-59.21359 -7.24254,-6.06011 -24.34475,-23.16265 -30.40149,-30.40208 -32.498186,-38.84399 -51.469146,-82.35022 -58.458166,-134.0625 -1.64999,-12.20837 -1.64999,-49.66663 0,-61.875 5.40432,-39.987 17.4235,-73.63539 37.83736,-105.92789 10.11659,-16.00336 20.792956,-29.2257 35.362076,-43.79482 20.68993,-20.68993 40.44831,-35.01188 65.97272,-47.82065 28.99671,-14.55125 59.53413,-23.23162 92.1875,-26.20464 8.86429,-0.80708 36.12885,-0.8075 45,-7e-4 51.63149,4.69572 97.46124,23.22347 138.93184,56.16649 8.84706,7.02783 30.2223,28.48074 37.75753,37.89471 47.49079,59.33161 66.25749,134.90525 51.9927,209.375 -7.79282,40.68265 -25.49217,78.76713 -51.9927,111.875 -7.53523,9.41397 -28.91047,30.86688 -37.75753,37.89472 -41.4706,32.94301 -87.30035,51.47077 -138.93184,56.16648 -8.0812,0.73496 -38.15584,0.68909 -46.25,-0.0705 z m 35.625,-39.30644 c 62.69347,-3.91108 118.25949,-32.66232 157.02134,-81.24673 25.57584,-32.05697 40.41109,-68.13029 45.88037,-111.5625 1.02902,-8.17158 1.02902,-36.82842 0,-45 -4.17339,-33.1414 -13.34166,-60.77296 -28.77966,-86.73681 -49.08306,-82.5486 -144.84545,-122.91884 -237.50804,-100.1255 -30.39664,7.47704 -58.43095,21.35085 -83.48901,41.31765 -8.83159,7.03719 -26.00747,24.21307 -33.04468,33.04466 -26.65842,33.45598 -42.127646,71.44747 -46.697986,114.6875 -0.97712,9.24452 -0.97712,31.38048 0,40.625 4.57034,43.24002 20.039566,81.23152 46.697986,114.6875 7.03721,8.83159 24.21309,26.00747 33.04468,33.04466 36.35656,28.96967 79.98744,45.41571 125.9375,47.47034 9.21603,0.41209 11.37322,0.39089 20.9375,-0.20577 z m 65.7271,-37.68441 c -10.86864,-11.15679 -32.33536,-49.08423 -36.95288,-65.2884 -4.2034,-14.75093 -7.04094,-34.94966 -6.28521,-44.74066 0.57505,-7.45021 1.55719,-10.41409 5.63407,-17.00244 7.69372,-12.43327 9.21042,-16.6603 9.96799,-27.78082 0.22247,-3.26562 1.3758,-15.58619 2.56295,-27.37902 1.18716,-11.79285 2.15847,-21.69607 2.15847,-22.00717 0,-0.3111 -1.19532,-0.88237 -2.65625,-1.2695 -1.46094,-0.38712 -4.36477,-1.60496 -6.45295,-2.70631 l -3.79671,-2.00244 1.10875,2.91798 c 4.34016,11.42237 -0.13105,23.45686 -15.561,41.88327 -7.72808,9.22885 -27.44935,29.17803 -34.82933,35.23184 -17.02055,13.96198 -41.55268,28.81836 -71.25,43.1482 -16.315,7.87247 -23.96167,11.24232 -24.43541,10.76858 -0.96068,-0.96068 18.23103,-40.21925 27.79634,-56.86021 13.62258,-23.69949 23.75388,-37.35116 39.10354,-52.69108 22.95078,-22.93622 36.71304,-33.52637 47.80521,-36.78642 4.85579,-1.42715 12.75937,-1.29741 16.20482,0.26601 1.49848,0.67994 2.81811,1.23627 2.93251,1.23627 0.1144,0 -0.47547,-1.19531 -1.31083,-2.65625 -0.83537,-1.46094 -2.11199,-4.4272 -2.83694,-6.5917 l -1.31809,-3.93544 -2.59558,0.35173 c -4.1145,0.55758 -39.27721,3.98235 -48.11772,4.68657 -10.18822,0.81156 -14.25664,2.20583 -24.26127,8.31444 -11.12615,6.79337 -11.79806,6.98024 -24.90408,6.92625 -11.87819,-0.0489 -18.64222,-0.98228 -34.05848,-4.69959 -11.61779,-2.80139 -20.66238,-6.71423 -38.2963,-16.56759 -11.02521,-6.16058 -19.23197,-11.34653 -26.16184,-16.53196 -7.02657,-5.25778 -9.60839,-8.09104 -9.60839,-10.54412 0,-2.05597 1.07582,-2.51123 8.75,-3.70272 14.41511,-2.23808 57.71548,-2.44491 83.75001,-0.40004 28.11934,2.20863 66.23462,7.62711 105.20836,14.95646 11.11354,2.09 11.14725,2.09234 11.62377,0.80419 0.42905,-1.15983 -0.29501,-1.66687 -7.08337,-4.96035 -4.1587,-2.01766 -8.8724,-4.23387 -10.47489,-4.92492 -2.12914,-0.91817 -3.98647,-2.54629 -6.89824,-6.04696 -7.30967,-8.78804 -11.75063,-15.07477 -11.75063,-16.63446 0,-0.18895 0.49218,-0.34172 1.09375,-0.3395 1.57105,0.006 6.35791,4.29805 12.48746,11.1972 5.19166,5.8435 5.43882,6.02719 10.36365,7.70233 l 5.04515,1.71607 -2.02688,-2.09122 c -2.237,-2.30799 -2.66062,-3.61468 -6.02409,-18.5822 -2.87098,-12.77589 -2.88098,-17.61753 -0.028,-13.5443 0.54007,0.77106 2.87633,7.24419 5.19169,14.38474 l 4.20975,12.98282 5.46875,2.83218 c 3.00781,1.5577 5.46875,2.62365 5.46875,2.36876 0,-0.25488 -1.29499,-3.77473 -2.87776,-7.82189 l -2.87776,-7.35849 1.01336,-7.98876 c 1.85268,-14.60547 3.63549,-21.50247 5.15981,-19.96117 0.73472,0.74292 0.52884,12.03937 -0.35694,19.5854 l -0.74693,6.363 5.34524,8.20381 c 2.93989,4.51209 5.60749,8.04173 5.92801,7.84364 2.22647,-1.37604 13.07324,-1.39803 18.27099,-0.0371 l 1.67054,0.43741 -1.27042,-3.9619 c -0.83234,-2.59573 -1.2935,-5.81281 -1.33737,-9.32952 -0.0607,-4.86848 0.12263,-5.75272 1.97184,-9.509 2.1427,-4.35245 5.23138,-7.44275 8.69314,-8.69773 1.42997,-0.5184 2.22111,-1.33297 2.69797,-2.77787 1.31249,-3.97688 6.77272,-6.91169 11.28789,-6.0671 4.2745,0.79957 8.58063,4.8029 8.73213,8.11809 0.13673,2.99223 6.19625,-12.43286 6.19625,-15.77317 0,-2.79128 -1.8942,-7.65308 -5.3252,-13.66811 -3.03882,-5.32746 -3.34093,-7.38592 -1.13025,-7.70077 1.10183,-0.15692 1.8596,0.66591 4.02908,4.375 7.8937,13.49569 8.14164,17.35626 2.01644,31.39846 -1.7814,4.08392 -2.00451,5.04301 -1.26893,5.45466 5.09549,2.85158 12.8328,10.43556 15.83966,15.52577 1.31173,2.22059 0.83541,2.28507 9.2767,-1.25601 10.87898,-4.5637 15.45295,-4.12489 27.34375,2.62326 4.5182,2.56413 5.46875,3.367 5.46875,4.61911 0,2.1642 -2.32286,1.99753 -6.30443,-0.45235 -4.68602,-2.88334 -12.46809,-6.14072 -14.69148,-6.14949 -2.1344,-0.008 -6.5942,1.4341 -12.66535,4.09661 l -3.97376,1.7427 2.6213,1.23371 c 8.14378,3.83287 8.03771,16.43305 -0.16261,19.31873 -1.07422,0.37802 -2.07129,1.40755 -2.6086,2.69352 -1.36198,3.25968 -5.67982,7.50066 -9.26067,9.09581 -4.43586,1.97604 -13.40674,2.04455 -18.76971,0.14337 -2.74333,-0.97252 -3.54751,-1.07682 -3.29844,-0.42778 0.18114,0.47207 0.6531,2.71736 1.04878,4.98955 0.66182,3.80046 0.55655,6.87513 -0.43765,12.78204 l -0.37675,2.2384 7.965,5.17663 7.96499,5.17664 6.63094,-0.68155 c 6.44032,-0.66196 12.29846,-0.93017 17.09969,-0.7829 3.25055,0.0997 3.12087,1.68945 -0.211,2.58663 -3.61305,0.97289 -11.02187,2.21604 -18.79063,3.15294 l -6.65788,0.80294 -6.77962,-2.58955 c -3.72879,-1.42425 -7.26246,-2.76602 -7.8526,-2.9817 -0.78257,-0.28602 -0.27509,1.14723 1.875,5.29551 2.72674,5.26084 3.13288,5.73854 5.4119,6.36534 6.22488,1.71208 23.16582,7.50388 24.49377,8.37399 5.63771,3.69396 -4.48921,2.657 -24.19903,-2.47791 -4.06512,-1.05907 -6.24121,-1.98938 -7.52071,-3.21522 -0.99023,-0.94873 -1.80043,-1.58097 -1.80043,-1.40499 0,0.17597 0.67585,2.30704 1.50188,4.73569 1.22192,3.59257 2.0666,4.9178 4.53125,7.10907 7.13942,6.34752 13.96687,13.62256 13.96687,14.88249 0,0.72141 -0.29115,1.31165 -0.64699,1.31165 -1.2732,0 -7.90113,-4.75121 -16.02161,-11.48504 -4.40469,-3.65253 -4.56768,-3.8954 -9.5572,-14.24043 -4.83882,-10.03257 -6.35535,-12.04401 -7.27459,-9.64854 -0.18488,0.48179 0.79793,7.02085 2.18402,14.53125 8.81665,47.77224 13.25856,81.44557 15.11614,114.59276 0.97442,17.38777 0.4285,59.82632 -0.88439,68.75 -1.34592,9.14823 -1.94089,10.625 -4.28067,10.625 -1.43313,0 -2.61925,-0.77117 -5.0951,-3.31268 z m 1020.8354,-73.59662 c -40.4992,-2.45539 -59.8943,-13.66813 -65.1087,-37.64067 -1.0053,-4.62204 -1.3198,-9.00959 -1.5885,-22.16878 l -0.3351,-16.40625 13.5161,0 13.5162,0 0.022,12.34375 c 0.014,7.73091 0.3489,14.17901 0.8971,17.25482 3.4043,19.10041 17.8569,25.60477 56.8936,25.60477 37.9159,0 52.6065,-6.2214 56.5609,-23.95334 1.137,-5.09836 1.5552,-22.10844 0.6701,-27.25382 -1.3739,-7.98604 -5.5425,-14.47223 -11.5724,-18.00599 -5.8965,-3.45554 -11.6339,-4.6905 -51.1652,-11.01313 -42.7517,-6.83772 -39.9919,-6.33556 -46.9934,-8.5505 -16.2283,-5.13392 -26.4863,-15.32578 -30.6868,-30.48906 -1.3587,-4.90491 -1.9331,-27.61608 -0.9385,-37.11436 3.009,-28.73811 17.793,-40.40077 57.2503,-45.16298 10.4577,-1.26215 44.4825,-1.09102 55.625,0.27979 27.9666,3.44058 43.1753,11.18303 50.3138,25.61374 3.6185,7.31494 4.9496,14.36243 5.4262,28.72756 l 0.3887,11.71875 -13.4445,0 -13.4444,0 -0.3651,-9.84375 c -0.4752,-12.80795 -1.7993,-17.83674 -6.157,-23.38286 -4.2614,-5.42352 -13.8634,-9.56591 -26.7802,-11.5533 -5.5918,-0.86037 -11.0725,-1.10588 -24.6875,-1.10588 -19.8162,0 -27.8747,0.87823 -37.5,4.08686 -16.3247,5.44188 -20.7018,13.88497 -20.2028,38.96925 0.2157,10.84709 0.2909,11.41276 2.0168,15.17185 2.8057,6.11081 7.6377,9.97782 15.3735,12.3033 1.8907,0.56834 20.5938,3.83085 41.5625,7.25001 43.4197,7.07999 45.5625,7.48318 52.5253,9.8832 17.2326,5.9398 27.0937,17.07982 30.0334,33.92856 0.839,4.80886 0.9587,8.64762 0.6696,21.48026 -0.3622,16.07521 -0.9483,20.77361 -3.5023,28.07506 -4.6891,13.40515 -16.0415,22.20089 -34.7935,26.95773 -15.2259,3.86238 -40.3338,5.42995 -63.995,3.99541 z m -727.18751,-0.61595 c -34.38477,-3.01318 -52.07594,-12.34014 -58.8607,-31.03193 -3.26332,-8.99036 -3.32178,-10.40157 -3.32178,-80.19282 0,-69.79125 0.0584,-71.20246 3.32178,-80.19282 6.84291,-18.85201 24.51257,-28.17132 58.94032,-31.08622 13.6045,-1.15185 46.33494,-0.46787 57.00519,1.19126 29.07512,4.52096 43.736,14.53027 48.82194,33.33195 2.37343,8.77413 2.53075,13.54525 2.53075,76.75583 0,63.33483 -0.15419,67.97136 -2.55575,76.84683 -5.19463,19.19815 -21.00975,29.47752 -51.50675,33.47788 -9.38788,1.23143 -44.04675,1.80512 -54.375,0.90004 z m 50.35968,-22.37746 c 18.05194,-3.21572 25.937,-8.9008 29.83007,-21.50725 0.89687,-2.90432 1.03662,-10.21655 1.22718,-64.21504 0.22413,-63.50159 0.0958,-67.43492 -2.41393,-74.01779 -3.73944,-9.80822 -12.57825,-15.36671 -29.11038,-18.30668 -9.12537,-1.6228 -45.29606,-1.58898 -54.18118,0.0507 -19.07379,3.51984 -27.00964,9.73797 -30.28671,23.73113 -0.94407,4.03123 -1.04923,10.52389 -1.04947,64.79267 -2.9e-4,66.51731 -0.0255,66.03335 3.84333,73.7667 2.52527,5.04772 6.23334,8.58801 11.73814,11.207 5.98804,2.84891 11.87513,4.15357 26.60577,5.89619 1.20312,0.14233 9.92187,0.17607 19.375,0.075 14.01012,-0.14981 18.52493,-0.42205 24.42218,-1.47257 z m 151.89475,22.35133 c -28.98543,-3.24003 -44.33462,-13.74003 -49.40131,-33.79418 -2.42406,-9.59455 -2.54062,-14.26291 -2.54062,-101.75481 l 0,-85.02463 13.42068,0 13.42075,0 0.19457,87.03125 c 0.18268,81.71388 0.26337,87.26036 1.32087,90.78125 4.35644,14.50473 12.94331,19.94032 34.13025,21.60497 14.69225,1.15438 29.61206,-0.72631 37.50931,-4.72818 4.00882,-2.0314 8.35338,-5.97132 10.35963,-9.3947 0.83475,-1.42439 2.14812,-4.81557 2.91869,-7.53595 l 1.40093,-4.94614 0.17907,-86.40625 0.17906,-86.40625 13.40369,0 13.40368,0 0.17907,86.40625 0.17906,86.40625 1.40094,4.94614 c 0.77056,2.72038 2.08393,6.11156 2.91868,7.53595 2.00625,3.42338 6.35082,7.3633 10.35963,9.3947 7.89725,4.00187 22.81705,5.88256 37.50925,4.72818 18.2192,-1.43147 26.8114,-5.58333 31.5236,-15.23248 4.1944,-8.58869 4.0886,-6.00377 4.0886,-99.89186 l 0,-84.29313 13.4375,0 13.4375,0 0,85.02463 c 0,56.02646 -0.2272,87.06195 -0.6661,90.99819 -1.5308,13.72832 -5.0356,22.21446 -12.0712,29.22824 -5.3954,5.37867 -9.7614,8.02398 -17.7672,10.76503 -11.2396,3.84824 -18.8043,4.81704 -37.933,4.85807 -15.01245,0.0322 -17.53033,-0.11045 -22.81251,-1.29246 -15.45163,-3.45766 -26.6845,-9.75777 -34.05307,-19.09905 l -3.1155,-3.94964 -2.99525,3.73212 c -5.78287,7.20563 -12.93731,12.23774 -22.53862,15.85275 -10.09725,3.80174 -15.23413,4.59297 -31.36006,4.83043 -7.90625,0.11642 -16.7355,-0.0522 -19.62057,-0.37468 z m 248.21518,-91.35487 0.1896,-90.15625 1.387,-5.18709 c 4.6372,-17.3412 15.2931,-26.77703 36.2034,-32.05798 13.6844,-3.45606 19.8902,-3.98914 46.4379,-3.98914 26.062,0 32.2878,0.51055 45.5335,3.73401 21.6707,5.27376 32.3508,14.59984 37.1375,32.42919 l 1.3615,5.07101 0.1855,90.15625 0.1855,90.15625 -13.1392,0 -13.1393,0 0,-40.625 0,-40.625 -58.125,0 -58.125,0 0,40.625 0,40.625 -13.1413,0 -13.1412,0 0.1896,-90.15625 z m 142.1714,-48.4375 c -0.2353,-27.30001 -0.47,-34.36298 -1.2528,-37.69963 -3.1529,-13.43909 -10.8443,-19.37988 -29.5997,-22.8625 -9.0593,-1.6822 -45.1427,-1.6822 -54.2021,0 -14.8649,2.76022 -22.4241,6.94885 -26.5666,14.72099 -3.7906,7.11201 -3.9463,8.77843 -4.2836,45.84114 l -0.3056,33.59375 58.2499,0 58.25,0 -0.2895,-33.59375 z m 278.9215,28.90625 0,-109.6875 54.968,0 c 45.038,0 56.248,0.1678 62.0537,0.92886 25.6801,3.36637 40.956,13.48708 47.7973,31.6672 3.7845,10.05674 4.0322,13.20305 3.7714,47.8944 -0.2234,29.70837 -0.2947,31.30519 -1.6247,36.38454 -5.4792,20.92418 -19.7578,32.79432 -45.2224,37.59446 -6.6751,1.25826 -9.4421,1.34476 -51.2746,1.6029 l -44.2187,0.27286 0,31.51489 0,31.51489 -13.125,0 -13.125,0 0,-109.6875 z m 107.9552,24.64001 c 11.4191,-1.27331 20.0538,-5.14125 25.6371,-11.48429 3.2706,-3.71556 5.3519,-7.91181 7.1449,-14.40572 1.315,-4.76286 1.3819,-6.18571 1.4091,-30 0.024,-21.51925 -0.1217,-25.65264 -1.0502,-29.6875 -2.4712,-10.7384 -8.3806,-18.70041 -16.8583,-22.71388 -9.5606,-4.52617 -7.9063,-4.3877 -55.3316,-4.63112 l -42.6562,-0.21894 0,56.90697 0,56.90697 37.8371,0 c 22.8527,0 40.2256,-0.26632 43.8681,-0.67249 z"
				style="fill:#ffffff" />
	</g>
</svg>
